<svg width="436" height="238" viewBox="0 0 436 238" fill="none" xmlns="http://www.w3.org/2000/svg">
<g clip-path="url(#clip0_0_203)">
<path d="M378.477 236.44C378.518 236.315 382.558 223.809 375.408 212.65L374.678 213.118C381.6 223.92 377.694 236.044 377.654 236.166L378.477 236.44Z" fill="#E4E4E4"/>
<path d="M370.295 214.255C370.449 214.986 370.746 215.679 371.167 216.295C371.589 216.912 372.129 217.439 372.754 217.847C373.38 218.254 374.079 218.535 374.813 218.672C375.547 218.81 376.301 218.801 377.032 218.647C377.762 218.493 378.455 218.196 379.071 217.774C379.687 217.352 380.214 216.812 380.622 216.187C381.029 215.561 381.31 214.861 381.447 214.127C381.584 213.392 381.576 212.638 381.422 211.907C380.774 208.834 375.28 201.184 372.208 201.832C369.135 202.48 369.647 211.181 370.295 214.255Z" fill="#E4E4E4"/>
<path d="M371.331 228.631C374.073 231.595 378.979 231.515 378.979 231.515C378.979 231.515 379.438 226.628 376.696 223.664C373.954 220.7 369.049 220.78 369.049 220.78C369.049 220.78 368.589 225.667 371.331 228.631Z" fill="#E4E4E4"/>
<path d="M412.893 237.307C412.991 237.012 422.526 207.5 405.651 181.166L403.928 182.271C420.263 207.762 411.046 236.374 410.951 236.66L412.893 237.307Z" fill="#E4E4E4"/>
<path d="M393.585 184.953C394.32 188.436 396.408 191.484 399.389 193.427C402.37 195.37 406.001 196.048 409.482 195.314C412.963 194.579 416.011 192.492 417.954 189.51C419.897 186.528 420.576 182.896 419.843 179.413C418.314 172.16 405.35 154.107 398.099 155.636C390.848 157.166 392.056 177.699 393.585 184.953Z" fill="#E4E4E4"/>
<path d="M396.03 218.88C402.501 225.875 414.078 225.685 414.078 225.685C414.078 225.685 415.163 214.154 408.692 207.158C402.22 200.162 390.643 200.352 390.643 200.352C390.643 200.352 389.559 211.884 396.03 218.88Z" fill="#E4E4E4"/>
<path d="M251.523 235.085L245.196 232.42L240.855 200.69H183.056L178.352 232.29L172.691 235.122C172.42 235.257 172.203 235.48 172.075 235.754C171.946 236.029 171.914 236.338 171.984 236.633C172.054 236.928 172.221 237.191 172.458 237.379C172.695 237.567 172.989 237.669 173.292 237.669H251.001C251.312 237.669 251.613 237.562 251.853 237.365C252.093 237.168 252.258 236.895 252.319 236.59C252.38 236.286 252.335 235.97 252.19 235.696C252.044 235.421 251.809 235.205 251.523 235.085Z" fill="#E6E6E6"/>
<path d="M354.236 204.912H70.3099C68.8202 204.908 67.3927 204.314 66.3405 203.259C65.2883 202.204 64.6974 200.775 64.6974 199.284V159.231H359.849V199.284C359.849 200.775 359.258 202.204 358.205 203.259C357.153 204.314 355.726 204.908 354.236 204.912Z" fill="#CCCCCC"/>
<path d="M360.145 178.161H64.4382V6.78355C64.4403 4.98504 65.1554 3.26079 66.4267 1.98907C67.698 0.717348 69.4216 0.00201588 71.2194 0H353.364C355.162 0.0020147 356.886 0.717343 358.157 1.98906C359.428 3.26078 360.143 4.98503 360.145 6.78355V178.161Z" fill="#3F3D56"/>
<path d="M342.486 12.438H82.0987C80.7128 12.4397 79.3842 12.9916 78.4046 13.9723C77.4251 14.9531 76.8746 16.2827 76.874 17.6691V160.492C76.8746 161.879 77.4251 163.208 78.4046 164.189C79.3842 165.17 80.7128 165.721 82.0987 165.723H342.486C343.871 165.721 345.2 165.169 346.179 164.188C347.158 163.207 347.709 161.878 347.711 160.492V17.6691C347.709 16.2829 347.158 14.9537 346.179 13.9731C345.2 12.9925 343.871 12.4404 342.486 12.438Z" fill="white"/>
<path d="M128.254 12.438V165.723H82.0987C80.7128 165.721 79.3842 165.17 78.4046 164.189C77.4251 163.208 76.8746 161.879 76.874 160.492V17.6691C76.8746 16.2827 77.4251 14.9531 78.4046 13.9723C79.3842 12.9916 80.7128 12.4397 82.0987 12.438H128.254Z" fill="#F0F0F0"/>
<path d="M90.1767 89.8727C89.6571 89.7544 89.118 89.7515 88.5972 89.8641C88.0764 89.9768 87.5866 90.2024 87.1623 90.5249C86.7381 90.8474 86.3897 91.2591 86.1417 91.7309C85.8937 92.2027 85.7521 92.7231 85.7269 93.2556L73.3032 96.9197L78.4463 101.263L89.4556 97.1177C90.3525 97.1008 91.2121 96.7553 91.8715 96.1467C92.5308 95.5381 92.9441 94.7087 93.033 93.8156C93.1219 92.9226 92.8802 92.0279 92.3537 91.3012C91.8273 90.5745 91.0527 90.0662 90.1767 89.8727Z" fill="#FFB6B6"/>
<path d="M39.979 117.449C38.7508 117.447 37.5631 117.01 36.6276 116.213C35.6921 115.417 35.0698 114.314 34.8715 113.102C34.6732 111.889 34.9118 110.646 35.5449 109.593C36.1779 108.54 37.1642 107.746 38.3279 107.353L63.5037 98.8513L83.142 91.6943L85.5519 100.133L68.2154 111.561L41.0626 117.335C40.7064 117.411 40.3432 117.449 39.979 117.449Z" fill="#B51D44"/>
<path d="M55.7339 233.704H59.2685L60.9504 220.065H55.733L55.7339 233.704Z" fill="#FFB6B6"/>
<path d="M54.832 232.55L61.7934 232.55C62.9699 232.55 64.0986 233.017 64.9305 233.85C65.7625 234.682 66.2299 235.811 66.23 236.988V237.132L54.8322 237.132L54.832 232.55Z" fill="#2F2E41"/>
<path d="M28.6312 233.704H32.1658L33.8477 220.065H28.6307L28.6312 233.704Z" fill="#FFB6B6"/>
<path d="M27.7294 232.55L34.6907 232.55C35.8673 232.55 36.9959 233.017 37.8278 233.85C38.6598 234.682 39.1272 235.811 39.1273 236.988V237.132L27.7296 237.132L27.7294 232.55Z" fill="#2F2E41"/>
<path d="M28.5962 151.891C26.9785 155.661 26.6245 159.853 27.587 163.841L26.5779 231.5H34.3411L38.6876 194.291L45.8957 169.774L53.6805 188.811V228.487L61.1769 228.039L65.2135 185.927L60.6003 155.929L28.5962 151.891Z" fill="#2F2E41"/>
<path d="M56.9961 99.2513L50.3646 97.2322L48.6347 93.771H40.1166L37.9666 97.5207C37.9666 97.5207 29.3169 100.694 29.0285 115.981C28.7402 131.268 27.5869 155.785 27.5869 155.785L61.6933 160.649L56.9961 99.2513Z" fill="#B51D44"/>
<path d="M66.7877 157.912C67.0114 157.428 67.1264 156.901 67.1245 156.368C67.1226 155.835 67.0039 155.309 66.7768 154.827C66.5496 154.344 66.2195 153.918 65.8098 153.577C65.4001 153.236 64.9206 152.99 64.4052 152.854L63.4055 139.936L58.0894 144.065L59.8537 155.7C59.6838 156.581 59.8429 157.494 60.3009 158.266C60.7589 159.037 61.4839 159.614 62.3387 159.887C63.1934 160.16 64.1183 160.109 64.9383 159.745C65.7583 159.381 66.4164 158.729 66.7877 157.912Z" fill="#FFB6B6"/>
<path d="M57.7174 151.253L50.1478 131.913V104.143C50.1478 102.82 50.6533 101.547 51.5607 100.585C52.4681 99.6232 53.7088 99.0445 55.0288 98.9677C56.3488 98.891 57.6481 99.3219 58.6609 100.172C59.6736 101.023 60.3231 102.228 60.4763 103.542L63.5548 129.945L66.4696 150.649L57.7174 151.253Z" fill="#B51D44"/>
<path d="M46.0097 89.2814C50.711 89.2814 54.5221 85.4688 54.5221 80.7657C54.5221 76.0626 50.711 72.25 46.0097 72.25C41.3084 72.25 37.4973 76.0626 37.4973 80.7657C37.4973 85.4688 41.3084 89.2814 46.0097 89.2814Z" fill="#FFB9B9"/>
<path d="M46.5671 78.1771C46.1689 78.6885 45.6229 79.1502 45.5352 79.7926C45.4702 80.2686 45.6781 80.739 45.6979 81.219C45.6995 81.7034 45.5164 82.1702 45.1859 82.5242C44.8554 82.8782 44.4024 83.0929 43.9193 83.1244C43.5827 82.7008 43.0964 82.4226 42.5607 82.3472C42.2941 82.317 42.0248 82.3732 41.7925 82.5075C41.5602 82.6417 41.3771 82.847 41.27 83.0931C41.0173 83.8075 41.6024 84.5332 41.6965 85.2851C41.709 85.8413 41.619 86.3951 41.4311 86.9188C41.2154 87.7815 41.1578 88.6943 40.7794 89.499C40.401 90.3038 39.5595 90.9959 38.6885 90.8181C37.9561 90.6685 37.4605 89.9588 37.2557 89.2397C37.0508 88.5205 37.06 87.7579 36.9118 87.025C36.4301 84.6433 34.3809 82.8788 33.5769 80.5858C32.5467 77.6478 33.7843 74.2872 35.9172 72.0197C36.7795 71.0263 37.9052 70.2972 39.1642 69.9166C40.4934 69.578 41.8987 69.8214 43.2626 69.6766C44.7212 69.5218 46.0922 68.9288 47.5098 68.552C48.9273 68.1751 50.5107 68.0332 51.7992 68.7343C52.6979 69.2233 53.3487 70.0664 54.1861 70.6544C55.146 71.3234 56.3098 71.635 57.4755 71.5351L56.0835 72.1438C56.6163 72.633 57.2598 72.9855 57.9587 73.1713C57.3899 73.6223 56.6862 73.8694 55.9604 73.873C56.1118 74.1459 56.3175 74.3849 56.5648 74.5751C56.8121 74.7653 57.0958 74.9028 57.3983 74.9791C56.3413 75.4755 55.2192 75.984 54.057 75.8721C53.4877 75.8172 52.9435 75.6148 52.3811 75.5106C51.1825 75.2885 49.9515 75.5187 48.7542 75.7485C48.1255 75.8691 47.3539 75.9849 47.0364 76.5897C46.772 77.0933 46.9742 77.6544 46.5671 78.1771Z" fill="#2F2E41"/>
<path d="M102.564 102.666C110.064 102.666 116.144 96.5838 116.144 89.0809C116.144 81.5779 110.064 75.4956 102.564 75.4956C95.0641 75.4956 88.9841 81.5779 88.9841 89.0809C88.9841 96.5838 95.0641 102.666 102.564 102.666Z" fill="#B51D44"/>
<path d="M110.712 89.0812H103.379V81.7451H101.749V89.0812H94.416V90.7113H101.749V98.0474H103.379V90.7113H110.712V89.0812Z" fill="white"/>
<path d="M218.206 30.3667C217.787 30.3671 217.385 30.5338 217.089 30.83C216.793 31.1263 216.627 31.5279 216.626 31.9469V58.4051C216.627 58.8241 216.793 59.2258 217.089 59.5221C217.385 59.8184 217.787 59.985 218.206 59.9855H324.826C325.245 59.985 325.646 59.8184 325.943 59.5221C326.239 59.2258 326.405 58.8241 326.406 58.4051V31.9469C326.405 31.5279 326.239 31.1263 325.943 30.83C325.646 30.5338 325.245 30.3671 324.826 30.3667H218.206Z" fill="white"/>
<path d="M218.206 30.3667C217.787 30.3671 217.385 30.5338 217.089 30.83C216.793 31.1263 216.627 31.5279 216.626 31.9469V58.4051C216.627 58.8241 216.793 59.2258 217.089 59.5221C217.385 59.8184 217.787 59.985 218.206 59.9855H324.826C325.245 59.985 325.646 59.8184 325.943 59.5221C326.239 59.2258 326.405 58.8241 326.406 58.4051V31.9469C326.405 31.5279 326.239 31.1263 325.943 30.83C325.646 30.5338 325.245 30.3671 324.826 30.3667H218.206Z" fill="#E6E6E6"/>
<path d="M218.403 58.2078H324.629V32.1445H218.403V58.2078Z" fill="white"/>
<path d="M230.481 39.6455C230.114 39.6455 229.762 39.7912 229.503 40.0505C229.244 40.3098 229.098 40.6615 229.098 41.0282C229.098 41.3949 229.244 41.7465 229.503 42.0058C229.762 42.2651 230.114 42.4108 230.481 42.4108H312.547C312.729 42.4109 312.909 42.3752 313.076 42.3058C313.244 42.2364 313.396 42.1346 313.525 42.0063C313.653 41.8779 313.755 41.7256 313.825 41.5578C313.894 41.3901 313.93 41.2103 313.93 41.0288C313.93 40.8472 313.895 40.6674 313.825 40.4996C313.756 40.3318 313.654 40.1793 313.526 40.0509C313.397 39.9225 313.245 39.8205 313.077 39.751C312.91 39.6814 312.73 39.6456 312.549 39.6455H230.481Z" fill="#E4E4E4"/>
<path d="M230.48 47.9414C230.114 47.9421 229.763 48.088 229.505 48.3472C229.246 48.6065 229.101 48.9578 229.101 49.3241C229.101 49.6903 229.246 50.0416 229.505 50.3009C229.763 50.5601 230.114 50.7061 230.48 50.7067H312.547C312.914 50.7075 313.266 50.5626 313.526 50.3039C313.785 50.0452 313.932 49.6938 313.933 49.3271C313.933 48.9604 313.789 48.6084 313.53 48.3486C313.271 48.0887 312.92 47.9422 312.554 47.9414H230.48Z" fill="#E4E4E4"/>
<path d="M144.062 75.2603C143.643 75.2607 143.242 75.4273 142.946 75.7236C142.65 76.0198 142.483 76.4215 142.483 76.8404V103.299C142.483 103.718 142.65 104.119 142.946 104.416C143.242 104.712 143.643 104.879 144.062 104.879H250.683C251.101 104.879 251.503 104.712 251.799 104.416C252.095 104.119 252.262 103.718 252.262 103.299V76.8404C252.262 76.4215 252.095 76.0198 251.799 75.7236C251.503 75.4273 251.101 75.2607 250.683 75.2603H144.062Z" fill="white"/>
<path d="M144.062 75.2603C143.643 75.2607 143.242 75.4273 142.946 75.7236C142.65 76.0198 142.483 76.4215 142.483 76.8404V103.299C142.483 103.718 142.65 104.119 142.946 104.416C143.242 104.712 143.643 104.879 144.062 104.879H250.683C251.101 104.879 251.503 104.712 251.799 104.416C252.095 104.119 252.262 103.718 252.262 103.299V76.8404C252.262 76.4215 252.095 76.0198 251.799 75.7236C251.503 75.4273 251.101 75.2607 250.683 75.2603H144.062Z" fill="#E6E6E6"/>
<path d="M144.26 103.101H250.485V77.0381H144.26V103.101Z" fill="white"/>
<path d="M156.337 84.5391C155.97 84.5391 155.619 84.6847 155.36 84.944C155.1 85.2033 154.955 85.555 154.955 85.9217C154.955 86.2884 155.1 86.6401 155.36 86.8994C155.619 87.1587 155.97 87.3044 156.337 87.3044H238.404C238.585 87.3044 238.765 87.2688 238.933 87.1994C239.1 87.1299 239.253 87.0282 239.381 86.8998C239.51 86.7715 239.612 86.6191 239.681 86.4514C239.751 86.2837 239.786 86.1039 239.787 85.9223C239.787 85.7407 239.751 85.5609 239.682 85.3932C239.612 85.2254 239.51 85.0729 239.382 84.9445C239.254 84.816 239.102 84.7141 238.934 84.6445C238.766 84.575 238.587 84.5391 238.405 84.5391H156.337Z" fill="#E4E4E4"/>
<path d="M156.337 92.835C155.971 92.8356 155.62 92.9816 155.361 93.2408C155.103 93.5 154.957 93.8513 154.957 94.2176C154.957 94.5839 155.103 94.9352 155.361 95.1944C155.62 95.4537 155.971 95.5996 156.337 95.6003H238.404C238.77 95.6011 239.122 95.4562 239.382 95.1975C239.642 94.9388 239.788 94.5874 239.789 94.2207C239.79 93.854 239.645 93.502 239.386 93.2421C239.128 92.9822 238.777 92.8358 238.41 92.835H156.337Z" fill="#E4E4E4"/>
<path d="M274.024 146.272C274.499 146.219 274.957 146.064 275.365 145.815C275.773 145.567 276.122 145.232 276.386 144.834C276.651 144.436 276.826 143.985 276.897 143.513C276.969 143.04 276.936 142.558 276.801 142.099L286.25 135.347L280.619 133.178L272.509 139.923C271.755 140.2 271.128 140.745 270.748 141.455C270.368 142.164 270.261 142.988 270.448 143.77C270.635 144.553 271.102 145.24 271.761 145.701C272.42 146.162 273.225 146.365 274.024 146.272Z" fill="#FFB7B7"/>
<path d="M279.27 141.825L276.136 136.469L276.202 136.393L288.85 121.989L298.67 105.236L307.197 106.323L307.323 108.902L307.297 108.94L293.75 129.314L293.735 129.326L279.27 141.825Z" fill="#3F3D56"/>
<path d="M321.058 232.456L316.236 232.456L313.941 213.848L321.059 213.849L321.058 232.456Z" fill="#FFB7B7"/>
<path d="M322.288 237.133L306.738 237.132V236.935C306.739 235.33 307.376 233.79 308.511 232.654C309.646 231.519 311.186 230.881 312.791 230.881L322.288 230.881L322.288 237.133Z" fill="#2F2E41"/>
<path d="M279.555 232.298L274.865 231.178L276.953 212.546L283.875 214.199L279.555 232.298Z" fill="#FFB7B7"/>
<path d="M279.666 237.132L264.542 233.519L264.587 233.328C264.96 231.766 265.938 230.417 267.305 229.576C268.673 228.735 270.318 228.472 271.88 228.845L281.117 231.052L279.666 237.132Z" fill="#2F2E41"/>
<path d="M298.297 96.7283V88.6079C298.297 85.722 299.443 82.9543 301.483 80.9136C303.522 78.873 306.289 77.7266 309.174 77.7266C312.059 77.7266 314.825 78.873 316.865 80.9136C318.905 82.9543 320.051 85.722 320.051 88.6079V96.7283C320.051 97.1159 319.896 97.4874 319.623 97.7614C319.349 98.0354 318.977 98.1896 318.59 98.19H299.758C299.37 98.1896 298.999 98.0354 298.725 97.7614C298.451 97.4874 298.297 97.1159 298.297 96.7283Z" fill="#2F2E41"/>
<path d="M306.489 98.0665C310.894 98.0665 314.464 94.4947 314.464 90.0887C314.464 85.6826 310.894 82.1108 306.489 82.1108C302.085 82.1108 298.515 85.6826 298.515 90.0887C298.515 94.4947 302.085 98.0665 306.489 98.0665Z" fill="#FFB7B7"/>
<path d="M295.724 89.2575C295.726 86.9754 296.633 84.7875 298.246 83.1739C299.86 81.5602 302.047 80.6525 304.328 80.6499H305.951C308.233 80.6525 310.42 81.5602 312.033 83.1739C313.646 84.7876 314.553 86.9754 314.556 89.2575V89.4199H311.125L309.954 86.1419L309.72 89.4199H307.947L307.357 87.766L307.239 89.4199H295.724V89.2575Z" fill="#2F2E41"/>
<path d="M311.141 132.195L290.836 131.422L289.701 118.133C288.826 115.701 288.812 113.612 289.659 111.926C290.388 110.541 291.613 109.482 293.088 108.961L297.531 103.593C298.103 102.903 298.821 102.348 299.633 101.97C300.445 101.591 301.331 101.398 302.227 101.403L313.77 101.482C314.049 101.315 315.736 100.457 319.065 101.9C322.675 103.466 321.837 108.904 321.828 108.959L321.82 109.01L321.78 109.044L314.101 115.512L311.141 132.195Z" fill="#3F3D56"/>
<path d="M290.998 129.994L281.393 147.512L274.112 227.209L282.339 229.723L296.902 167.379L313.803 227.954L323.665 228.201L316.95 158.297L311.082 131.232L290.998 129.994Z" fill="#2F2E41"/>
<path d="M228.837 117.009C228.439 116.88 228.006 116.915 227.633 117.106C227.259 117.296 226.977 117.627 226.848 118.025L218.692 143.194C218.563 143.593 218.598 144.026 218.788 144.399C218.979 144.773 219.309 145.055 219.707 145.185L321.132 178.076C321.53 178.205 321.964 178.17 322.337 177.979C322.71 177.789 322.992 177.458 323.122 177.06L331.277 151.891C331.406 151.492 331.371 151.059 331.181 150.686C330.991 150.312 330.66 150.03 330.262 149.9L228.837 117.009Z" fill="white"/>
<path d="M228.837 117.009C228.439 116.88 228.006 116.915 227.633 117.106C227.259 117.296 226.977 117.627 226.848 118.025L218.692 143.194C218.563 143.593 218.598 144.026 218.788 144.399C218.979 144.773 219.309 145.055 219.707 145.185L321.132 178.076C321.53 178.205 321.964 178.17 322.337 177.979C322.71 177.789 322.992 177.458 323.122 177.06L331.277 151.891C331.406 151.492 331.371 151.059 331.181 150.686C330.991 150.312 330.66 150.03 330.262 149.9L228.837 117.009Z" fill="#E6E6E6"/>
<path d="M220.443 143.554L321.492 176.324L329.526 151.531L228.477 118.761L220.443 143.554Z" fill="white"/>
<path d="M237.654 129.622C237.305 129.509 236.926 129.54 236.6 129.706C236.273 129.873 236.027 130.163 235.914 130.511C235.801 130.86 235.831 131.24 235.997 131.566C236.164 131.893 236.453 132.14 236.801 132.253L314.869 157.57C315.042 157.626 315.224 157.648 315.405 157.633C315.586 157.619 315.762 157.57 315.924 157.487C316.086 157.405 316.23 157.291 316.348 157.153C316.466 157.015 316.556 156.855 316.612 156.682C316.668 156.509 316.689 156.327 316.675 156.146C316.661 155.965 316.611 155.788 316.528 155.626C316.446 155.464 316.332 155.321 316.194 155.203C316.055 155.085 315.895 154.995 315.722 154.939L315.721 154.939L237.654 129.622Z" fill="#B51D44"/>
<path d="M235.097 137.514C234.748 137.402 234.369 137.433 234.044 137.6C233.718 137.766 233.471 138.056 233.358 138.404C233.245 138.752 233.275 139.131 233.441 139.458C233.608 139.784 233.896 140.031 234.244 140.145L312.312 165.462C312.66 165.575 313.04 165.546 313.366 165.38C313.693 165.214 313.941 164.925 314.055 164.577C314.168 164.228 314.139 163.848 313.973 163.521C313.807 163.194 313.518 162.947 313.17 162.833L313.164 162.831L235.097 137.514Z" fill="#B51D44"/>
<path d="M316.658 158.354C317.014 158.035 317.295 157.642 317.482 157.202C317.669 156.762 317.757 156.287 317.741 155.809C317.725 155.332 317.604 154.863 317.387 154.437C317.17 154.012 316.863 153.639 316.486 153.345L320.236 142.35L314.395 143.868L311.73 154.076C311.278 154.741 311.086 155.55 311.19 156.348C311.294 157.145 311.687 157.877 312.294 158.405C312.902 158.932 313.682 159.218 314.486 159.209C315.29 159.2 316.063 158.895 316.658 158.354Z" fill="#FFB7B7"/>
<path d="M318.333 151.682L312.667 149.155L314.571 129.976L312.799 110.637L320.363 106.552L321.967 108.574L321.968 108.62L322.818 133.075L322.813 133.094L318.333 151.682Z" fill="#3F3D56"/>
<path d="M435.338 238H139.003C138.853 238.003 138.707 237.956 138.586 237.868C138.465 237.779 138.377 237.652 138.336 237.508C138.31 237.41 138.307 237.307 138.327 237.208C138.347 237.108 138.39 237.015 138.452 236.934C138.513 236.854 138.593 236.789 138.684 236.744C138.775 236.699 138.875 236.676 138.976 236.676H435.284C435.442 236.67 435.597 236.718 435.725 236.812C435.852 236.906 435.944 237.041 435.985 237.193C436.006 237.29 436.006 237.391 435.983 237.487C435.961 237.584 435.917 237.674 435.855 237.752C435.793 237.829 435.714 237.892 435.625 237.934C435.535 237.977 435.437 238 435.338 238Z" fill="#CCCCCC"/>
<path d="M99.7409 238H0.688504C0.538625 238.003 0.391903 237.956 0.271198 237.868C0.150494 237.779 0.0625856 237.652 0.0211719 237.508C-0.00468313 237.41 -0.0076925 237.307 0.0123726 237.208C0.0324377 237.108 0.0750409 237.015 0.136909 236.934C0.198778 236.854 0.27826 236.789 0.369238 236.744C0.460216 236.699 0.560267 236.676 0.66169 236.676H99.6867C99.8448 236.67 100 236.718 100.127 236.812C100.255 236.906 100.346 237.041 100.387 237.193C100.409 237.29 100.408 237.391 100.386 237.487C100.363 237.584 100.319 237.674 100.257 237.752C100.195 237.829 100.117 237.892 100.027 237.934C99.938 237.977 99.8401 238 99.7409 238Z" fill="#CCCCCC"/>
</g>
<defs>
<clipPath id="clip0_0_203">
<rect width="436" height="238" fill="white"/>
</clipPath>
</defs>
</svg>
