<svg width="436" height="279" viewBox="0 0 436 279" fill="none" xmlns="http://www.w3.org/2000/svg">
<g clip-path="url(#clip0_0_510)">
<path d="M105.603 251.485L106.088 240.247C111.142 237.462 116.779 235.991 122.509 235.962C114.622 242.609 115.608 255.423 110.261 264.362C108.572 267.137 106.3 269.485 103.612 271.231C100.924 272.978 97.8888 274.078 94.7321 274.451L88.1322 278.617C87.2266 273.412 87.4262 268.067 88.7174 262.949C90.0086 257.831 92.3606 253.063 95.6114 248.973C97.4572 246.697 99.5736 244.67 101.911 242.939C103.491 247.236 105.603 251.485 105.603 251.485Z" fill="#F2F2F2"/>
<path d="M387.218 18.3097H79.977C79.848 18.3068 79.7253 18.2519 79.6351 18.1568C79.5449 18.0618 79.4944 17.9341 79.4944 17.8011C79.4944 17.6681 79.5449 17.5404 79.6351 17.4453C79.7253 17.3503 79.848 17.2954 79.977 17.2925H387.218C387.347 17.2954 387.47 17.3503 387.56 17.4453C387.65 17.5404 387.701 17.6681 387.701 17.8011C387.701 17.9341 387.65 18.0618 387.56 18.1568C387.47 18.2519 387.347 18.3068 387.218 18.3097Z" fill="#CACACA"/>
<path d="M90.8391 11.1894C93.7709 11.1894 96.1476 8.68454 96.1476 5.59468C96.1476 2.50482 93.7709 0 90.8391 0C87.9072 0 85.5305 2.50482 85.5305 5.59468C85.5305 8.68454 87.9072 11.1894 90.8391 11.1894Z" fill="#3F3D56"/>
<path d="M109.178 11.1894C112.11 11.1894 114.486 8.68454 114.486 5.59468C114.486 2.50482 112.11 0 109.178 0C106.246 0 103.869 2.50482 103.869 5.59468C103.869 8.68454 106.246 11.1894 109.178 11.1894Z" fill="#3F3D56"/>
<path d="M127.516 11.1894C130.448 11.1894 132.825 8.68454 132.825 5.59468C132.825 2.50482 130.448 0 127.516 0C124.584 0 122.208 2.50482 122.208 5.59468C122.208 8.68454 124.584 11.1894 127.516 11.1894Z" fill="#3F3D56"/>
<path d="M376.229 1.38672H363.202C362.944 1.392 362.698 1.50146 362.517 1.69158C362.336 1.88171 362.235 2.13734 362.235 2.40359C362.235 2.66983 362.336 2.92546 362.517 3.11559C362.698 3.30571 362.944 3.41517 363.202 3.42045H376.229C376.487 3.41517 376.733 3.30571 376.913 3.11559C377.094 2.92546 377.196 2.66983 377.196 2.40359C377.196 2.13734 377.094 1.88171 376.913 1.69158C376.733 1.50146 376.487 1.392 376.229 1.38672Z" fill="#3F3D56"/>
<path d="M376.229 5.20361H363.202C362.944 5.2089 362.698 5.31835 362.517 5.50848C362.336 5.6986 362.235 5.95423 362.235 6.22048C362.235 6.48673 362.336 6.74236 362.517 6.93248C362.698 7.12261 362.944 7.23206 363.202 7.23735H376.229C376.487 7.23206 376.733 7.12261 376.913 6.93248C377.094 6.74236 377.196 6.48673 377.196 6.22048C377.196 5.95423 377.094 5.6986 376.913 5.50848C376.733 5.31835 376.487 5.2089 376.229 5.20361Z" fill="#3F3D56"/>
<path d="M376.229 9.01562H363.202C362.944 9.02091 362.698 9.13036 362.517 9.32048C362.336 9.51061 362.235 9.76624 362.235 10.0325C362.235 10.2987 362.336 10.5544 362.517 10.7445C362.698 10.9346 362.944 11.0441 363.202 11.0494H376.229C376.487 11.0441 376.733 10.9346 376.913 10.7445C377.094 10.5544 377.196 10.2987 377.196 10.0325C377.196 9.76624 377.094 9.51061 376.913 9.32048C376.733 9.13036 376.487 9.02091 376.229 9.01562Z" fill="#3F3D56"/>
<path d="M319.092 58.1777H108.21C107.171 58.1778 106.174 58.603 105.439 59.36C104.704 60.117 104.29 61.1439 104.289 62.2151V164.839C104.29 165.91 104.703 166.938 105.438 167.696C106.173 168.454 107.17 168.88 108.21 168.881H319.092C320.131 168.879 321.126 168.452 321.86 167.694C322.594 166.937 323.007 165.91 323.008 164.839V62.2151C323.007 61.1447 322.594 60.1184 321.86 59.3615C321.126 58.6045 320.13 58.1788 319.092 58.1777Z" fill="#3F3D56"/>
<path d="M263.389 107.618C262.351 107.619 261.355 108.045 260.621 108.802C259.887 109.559 259.474 110.585 259.473 111.656V140.644C259.474 141.715 259.887 142.742 260.621 143.499C261.355 144.257 262.35 144.684 263.389 144.686H323.008V107.618H263.389Z" fill="#B51D44"/>
<path opacity="0.5" d="M423.255 144.684H263.391C262.352 144.683 261.356 144.257 260.621 143.499C259.886 142.742 259.473 141.715 259.472 140.644V111.657C259.473 110.585 259.886 109.558 260.621 108.801C261.356 108.043 262.352 107.617 263.391 107.616H423.255C424.294 107.617 425.29 108.043 426.025 108.801C426.76 109.558 427.173 110.585 427.174 111.657V140.644C427.173 141.715 426.76 142.742 426.025 143.499C425.29 144.257 424.294 144.683 423.255 144.684Z" fill="#B51D44"/>
<path d="M285.01 134.56C288.523 134.56 291.37 131.625 291.37 128.004C291.37 124.382 288.523 121.447 285.01 121.447C281.498 121.447 278.65 124.382 278.65 128.004C278.65 131.625 281.498 134.56 285.01 134.56Z" fill="white"/>
<path d="M418.302 126.098H303.381C302.879 126.098 302.397 125.893 302.042 125.526C301.687 125.16 301.487 124.664 301.487 124.146C301.487 123.628 301.687 123.131 302.042 122.765C302.397 122.399 302.879 122.193 303.381 122.193H418.302C418.804 122.193 419.286 122.399 419.641 122.765C419.996 123.131 420.195 123.628 420.195 124.146C420.195 124.664 419.996 125.16 419.641 125.526C419.286 125.893 418.804 126.098 418.302 126.098Z" fill="white"/>
<path d="M374.654 133.813H303.381C302.879 133.813 302.397 133.608 302.042 133.241C301.687 132.875 301.487 132.379 301.487 131.861C301.487 131.343 301.687 130.846 302.042 130.48C302.397 130.114 302.879 129.908 303.381 129.908H374.654C375.156 129.908 375.638 130.114 375.993 130.48C376.348 130.846 376.548 131.343 376.548 131.861C376.548 132.379 376.348 132.875 375.993 133.241C375.638 133.608 375.156 133.813 374.654 133.813Z" fill="white"/>
<path d="M73.5669 273.271L79.0711 273.27L81.6895 251.383H73.5659L73.5669 273.271Z" fill="#FFB6B6"/>
<path d="M72.1631 271.418L73.7123 271.418L79.7609 268.882L83.0027 271.417C84.8348 271.417 86.5922 272.168 87.8876 273.503C89.1831 274.839 89.9109 276.65 89.911 278.539V278.77L72.1634 278.771L72.1631 271.418Z" fill="#2F2E41"/>
<path d="M23.8335 265.893L28.76 268.424L40.5739 250.04L33.3035 246.304L23.8335 265.893Z" fill="#FFB6B6"/>
<path d="M23.3787 263.589L24.7653 264.301L31.276 264.813L33.0803 268.574C34.7198 269.416 35.968 270.896 36.5496 272.687C37.1311 274.478 36.9987 276.434 36.1816 278.124L36.0814 278.331L20.1973 270.17L23.3787 263.589Z" fill="#2F2E41"/>
<path d="M76.0058 173.868L41.0089 174.809L41.6175 192.378C41.6175 192.378 41.0089 197.084 42.2262 198.339C43.4435 199.594 44.0521 199.594 43.4435 201.79C42.8348 203.986 41.2613 224.969 41.2613 224.969C41.2613 224.969 26.8976 251.152 27.5063 251.78C28.1149 252.407 28.7235 251.78 28.1149 253.348C27.5063 254.917 26.8976 254.29 27.5063 254.917C28.0454 255.516 28.5533 256.145 29.0279 256.799H38.9476C38.9476 256.799 39.5023 253.662 39.5023 253.348C39.5023 253.035 40.111 251.152 40.111 250.839C40.111 250.525 57.4422 231.594 57.4422 231.594L61.0941 200.221L69.9193 230.967C69.9193 230.967 69.9194 257.948 70.528 258.576C71.1366 259.203 71.1366 258.889 70.8323 260.144C70.528 261.399 69.3107 261.085 70.2237 262.027C71.1366 262.968 71.441 261.399 71.1366 262.968L70.8323 264.536L82.5241 264.671C82.5241 264.671 83.7414 262.027 83.1327 261.085C82.5241 260.144 82.5606 260.401 83.3031 258.861C84.0457 257.321 84.35 257.007 84.0457 256.693C83.7414 256.379 83.7414 254.711 83.7414 254.711C83.7414 254.711 79.3533 193.005 79.3533 192.064C79.3304 191.58 79.4169 191.097 79.6061 190.653V189.375L78.4403 184.848L76.0058 173.868Z" fill="#2F2E41"/>
<path d="M422.571 119.393C419.915 119.393 417.319 118.581 415.11 117.06C412.902 115.539 411.18 113.376 410.164 110.847C409.148 108.317 408.882 105.533 409.4 102.848C409.918 100.162 411.197 97.6952 413.075 95.759C414.953 93.8229 417.346 92.5043 419.951 91.9701C422.556 91.4359 425.256 91.7101 427.71 92.7579C430.164 93.8058 432.261 95.5803 433.737 97.857C435.212 100.134 436 102.81 436 105.549C436 109.22 434.585 112.742 432.067 115.338C429.548 117.934 426.133 119.393 422.571 119.393Z" fill="#B51D44"/>
<path d="M427.87 104.183H423.896V100.086C423.896 99.7237 423.756 99.3763 423.508 99.1202C423.259 98.8641 422.922 98.7202 422.571 98.7202C422.22 98.7202 421.883 98.8641 421.634 99.1202C421.386 99.3763 421.246 99.7237 421.246 100.086V104.183H417.272C417.098 104.183 416.925 104.218 416.764 104.286C416.603 104.355 416.457 104.455 416.334 104.582C416.21 104.709 416.113 104.859 416.046 105.025C415.979 105.191 415.945 105.369 415.945 105.549C415.945 105.728 415.979 105.906 416.046 106.072C416.113 106.238 416.21 106.388 416.334 106.515C416.457 106.642 416.603 106.743 416.764 106.811C416.925 106.88 417.098 106.915 417.272 106.914H421.246V111.011C421.246 111.373 421.386 111.721 421.634 111.977C421.883 112.233 422.22 112.377 422.571 112.377C422.922 112.377 423.259 112.233 423.508 111.977C423.756 111.721 423.896 111.373 423.896 111.011V106.914H427.87C428.221 106.914 428.558 106.77 428.806 106.514C429.055 106.258 429.194 105.911 429.194 105.549C429.194 105.186 429.055 104.839 428.806 104.583C428.558 104.327 428.221 104.183 427.87 104.183Z" fill="white"/>
<path d="M217.623 144.872H166.599C165.56 144.873 164.563 145.299 163.828 146.057C163.093 146.815 162.679 147.842 162.678 148.914V168.881H221.539V148.914C221.538 147.843 221.126 146.816 220.391 146.058C219.657 145.301 218.662 144.874 217.623 144.872Z" fill="#B51D44"/>
<path opacity="0.5" d="M217.621 200.975H166.598C165.558 200.973 164.562 200.547 163.827 199.79C163.093 199.032 162.679 198.005 162.678 196.934V148.912C162.679 147.841 163.093 146.814 163.828 146.056C164.562 145.299 165.558 144.873 166.598 144.872H217.621C218.66 144.873 219.657 145.299 220.391 146.056C221.126 146.814 221.539 147.841 221.541 148.912V196.934C221.539 198.005 221.126 199.032 220.391 199.79C219.657 200.547 218.66 200.973 217.621 200.975Z" fill="#B51D44"/>
<path d="M181.631 167.634C185.143 167.634 187.991 164.698 187.991 161.077C187.991 157.456 185.143 154.521 181.631 154.521C178.118 154.521 175.271 157.456 175.271 161.077C175.271 164.698 178.118 167.634 181.631 167.634Z" fill="white"/>
<path d="M207.054 177.6H177.165C176.662 177.6 176.181 177.394 175.825 177.028C175.47 176.662 175.271 176.165 175.271 175.647C175.271 175.129 175.47 174.633 175.825 174.267C176.181 173.901 176.662 173.695 177.165 173.695H207.054C207.556 173.695 208.038 173.901 208.393 174.267C208.748 174.633 208.948 175.129 208.948 175.647C208.948 176.165 208.748 176.662 208.393 177.028C208.038 177.394 207.556 177.6 207.054 177.6Z" fill="white"/>
<path d="M191.588 185.315H177.164C176.662 185.315 176.18 185.109 175.825 184.743C175.47 184.377 175.271 183.88 175.271 183.362C175.271 182.844 175.47 182.348 175.825 181.982C176.18 181.615 176.662 181.41 177.164 181.41H191.588C192.09 181.41 192.572 181.615 192.927 181.982C193.282 182.348 193.482 182.844 193.482 183.362C193.482 183.88 193.282 184.377 192.927 184.743C192.572 185.109 192.09 185.315 191.588 185.315Z" fill="white"/>
<path d="M165.534 215.069C162.878 215.069 160.282 214.257 158.073 212.736C155.865 211.214 154.144 209.052 153.127 206.522C152.111 203.993 151.845 201.209 152.363 198.523C152.881 195.838 154.16 193.371 156.038 191.435C157.916 189.499 160.309 188.18 162.914 187.646C165.519 187.112 168.219 187.386 170.673 188.434C173.127 189.482 175.224 191.256 176.7 193.533C178.176 195.809 178.963 198.486 178.963 201.224C178.963 204.896 177.548 208.417 175.03 211.014C172.511 213.61 169.096 215.069 165.534 215.069Z" fill="#B51D44"/>
<path d="M170.833 199.859H166.859V195.762C166.859 195.399 166.719 195.052 166.471 194.796C166.222 194.54 165.885 194.396 165.534 194.396C165.183 194.396 164.846 194.54 164.597 194.796C164.349 195.052 164.209 195.399 164.209 195.762V199.859H160.235C160.061 199.858 159.888 199.893 159.727 199.962C159.566 200.03 159.42 200.131 159.297 200.258C159.174 200.385 159.076 200.535 159.009 200.701C158.942 200.867 158.908 201.045 158.908 201.224C158.908 201.404 158.942 201.582 159.009 201.748C159.076 201.913 159.174 202.064 159.297 202.191C159.42 202.318 159.566 202.418 159.727 202.487C159.888 202.555 160.061 202.59 160.235 202.59H164.209V206.687C164.209 207.049 164.349 207.397 164.597 207.653C164.846 207.909 165.183 208.053 165.534 208.053C165.885 208.053 166.222 207.909 166.471 207.653C166.719 207.397 166.859 207.049 166.859 206.687V202.59H170.833C171.184 202.59 171.521 202.446 171.769 202.19C172.018 201.934 172.157 201.587 172.157 201.224C172.157 200.862 172.018 200.515 171.769 200.259C171.521 200.003 171.184 199.859 170.833 199.859Z" fill="white"/>
<path d="M159.318 114.343H108.294C107.255 114.342 106.259 113.916 105.524 113.158C104.789 112.401 104.376 111.374 104.375 110.303V62.2807C104.376 61.2094 104.789 60.1824 105.524 59.425C106.259 58.6675 107.255 58.2414 108.294 58.2402H159.318C160.357 58.2414 161.353 58.6675 162.088 59.425C162.823 60.1824 163.236 61.2094 163.237 62.2807V110.303C163.236 111.374 162.823 112.401 162.088 113.158C161.353 113.916 160.357 114.342 159.318 114.343Z" fill="#B51D44"/>
<path d="M123.327 85.0099C126.84 85.0099 129.687 82.0744 129.687 78.4532C129.687 74.832 126.84 71.8965 123.327 71.8965C119.815 71.8965 116.967 74.832 116.967 78.4532C116.967 82.0744 119.815 85.0099 123.327 85.0099Z" fill="#B51D44"/>
<path d="M148.75 92.9718H118.861C118.359 92.9718 117.877 92.7661 117.522 92.4C117.167 92.0338 116.967 91.5372 116.967 91.0194C116.967 90.5015 117.167 90.0049 117.522 89.6388C117.877 89.2726 118.359 89.0669 118.861 89.0669H148.75C149.253 89.0669 149.734 89.2726 150.09 89.6388C150.445 90.0049 150.644 90.5015 150.644 91.0194C150.644 91.5372 150.445 92.0338 150.09 92.4C149.734 92.7661 149.253 92.9718 148.75 92.9718Z" fill="#B51D44"/>
<path d="M133.284 100.687H118.861C118.359 100.687 117.877 100.481 117.522 100.115C117.167 99.7488 116.967 99.2521 116.967 98.7343C116.967 98.2164 117.167 97.7198 117.522 97.3536C117.877 96.9874 118.359 96.7817 118.861 96.7817H133.284C133.787 96.7817 134.268 96.9874 134.624 97.3536C134.979 97.7198 135.178 98.2164 135.178 98.7343C135.178 99.2521 134.979 99.7488 134.624 100.115C134.268 100.481 133.787 100.687 133.284 100.687Z" fill="#B51D44"/>
<path opacity="0.5" d="M159.318 114.343H108.294C107.255 114.342 106.259 113.916 105.524 113.158C104.789 112.401 104.376 111.374 104.375 110.303V62.2807C104.376 61.2094 104.789 60.1824 105.524 59.425C106.259 58.6675 107.255 58.2414 108.294 58.2402H159.318C160.357 58.2414 161.353 58.6675 162.088 59.425C162.823 60.1824 163.236 61.2094 163.237 62.2807V110.303C163.236 111.374 162.823 112.401 162.088 113.158C161.353 113.916 160.357 114.342 159.318 114.343Z" fill="#B51D44"/>
<path d="M123.327 85.0099C126.84 85.0099 129.687 82.0744 129.687 78.4532C129.687 74.832 126.84 71.8965 123.327 71.8965C119.815 71.8965 116.967 74.832 116.967 78.4532C116.967 82.0744 119.815 85.0099 123.327 85.0099Z" fill="white"/>
<path d="M148.75 92.9718H118.861C118.359 92.9718 117.877 92.7661 117.522 92.4C117.167 92.0338 116.967 91.5372 116.967 91.0194C116.967 90.5015 117.167 90.0049 117.522 89.6388C117.877 89.2726 118.359 89.0669 118.861 89.0669H148.75C149.253 89.0669 149.734 89.2726 150.09 89.6388C150.445 90.0049 150.644 90.5015 150.644 91.0194C150.644 91.5372 150.445 92.0338 150.09 92.4C149.734 92.7661 149.253 92.9718 148.75 92.9718Z" fill="white"/>
<path d="M133.284 100.687H118.861C118.359 100.687 117.877 100.481 117.522 100.115C117.167 99.7488 116.967 99.2521 116.967 98.7343C116.967 98.2164 117.167 97.7198 117.522 97.3536C117.877 96.9874 118.359 96.7817 118.861 96.7817H133.284C133.787 96.7817 134.268 96.9874 134.624 97.3536C134.979 97.7198 135.178 98.2164 135.178 98.7343C135.178 99.2521 134.979 99.7488 134.624 100.115C134.268 100.481 133.787 100.687 133.284 100.687Z" fill="white"/>
<path d="M109.347 68.6016C114.982 68.6016 119.551 63.892 119.551 58.0823C119.551 52.2726 114.982 47.563 109.347 47.563C103.711 47.563 99.1431 52.2726 99.1431 58.0823C99.1431 63.892 103.711 68.6016 109.347 68.6016Z" fill="#FF6584"/>
<path d="M137.347 278.404C137.347 278.482 137.333 278.56 137.304 278.632C137.275 278.705 137.232 278.77 137.178 278.826C137.125 278.881 137.061 278.925 136.99 278.955C136.92 278.985 136.845 279 136.769 279H0.578213C0.424862 279 0.277789 278.937 0.169353 278.825C0.0609178 278.713 0 278.562 0 278.404C0 278.246 0.0609178 278.094 0.169353 277.982C0.277789 277.87 0.424862 277.808 0.578213 277.808H136.769C136.845 277.807 136.92 277.823 136.99 277.853C137.061 277.882 137.125 277.926 137.178 277.982C137.232 278.037 137.275 278.103 137.304 278.175C137.333 278.248 137.347 278.325 137.347 278.404Z" fill="#CCCCCC"/>
<path d="M107.166 85.9458C107.585 87.155 107.527 88.4856 107.004 89.6508C106.48 90.8161 105.533 91.7226 104.368 92.1749C104.11 92.2742 103.844 92.3497 103.573 92.4007L100.878 109.412L94.5566 103.394L98.0848 88.1629C97.9543 86.8794 98.3189 85.5945 99.0999 84.586C99.8809 83.5775 101.016 82.9263 102.259 82.7733C103.304 82.6497 104.36 82.8965 105.251 83.473C106.143 84.0495 106.818 84.9215 107.166 85.9458Z" fill="#FFB6B6"/>
<path d="M60.5132 124.491C60.5132 124.491 65.4195 117.808 83.2232 117.991L93.3287 114.206L95.6382 92.3804L103.721 94.3645L102.567 121.348L85.2455 131.666L62.5354 136.427L60.5132 124.491Z" fill="#3F3D56"/>
<path d="M57.9063 110.568C63.7422 110.568 68.4732 105.691 68.4732 99.6745C68.4732 93.6581 63.7422 88.7808 57.9063 88.7808C52.0703 88.7808 47.3394 93.6581 47.3394 99.6745C47.3394 105.691 52.0703 110.568 57.9063 110.568Z" fill="#FFB6B6"/>
<path d="M40.0216 182.274C40.0029 182.274 39.9842 182.271 39.9662 182.266C39.7711 182.21 39.617 182.166 40.321 175.889L41.0809 170.929L40.3391 166.548L39.0913 165.262L41.0967 163.195L42.7795 158.267L39.8677 153.818L36.5269 135.627C35.9526 132.488 36.3989 129.241 37.7966 126.39C39.1944 123.539 41.4655 121.243 44.2578 119.858L48.1244 118.694L49.5312 116.034C49.9263 115.287 50.508 114.663 51.216 114.226C51.924 113.789 52.7325 113.555 53.5577 113.548L60.6384 113.494C61.3528 113.488 62.0587 113.653 62.7008 113.976C63.3429 114.299 63.9037 114.771 64.3393 115.355L66.8096 118.665L77.0534 122.253L75.355 159.983C75.6248 160.215 75.8448 160.503 76.0011 160.828C76.1573 161.153 76.2465 161.508 76.2629 161.871C76.2793 162.233 76.2226 162.595 76.0963 162.933C75.9701 163.272 75.7771 163.58 75.5295 163.837C75.423 163.948 75.3383 164.038 75.2862 164.098C75.1135 164.351 75.4375 166.239 75.8376 167.843L76.3507 170.298C76.1861 170.419 76.0476 170.574 75.9441 170.753C75.8405 170.933 75.7741 171.132 75.7491 171.339C75.7241 171.546 75.741 171.756 75.7988 171.956C75.8565 172.156 75.9538 172.342 76.0846 172.501L76.7388 173.298C76.8682 174.297 76.6079 175.308 76.0152 176.109C75.4224 176.911 74.5456 177.437 73.5769 177.573C64.215 178.887 40.0705 182.274 40.0216 182.274Z" fill="#3F3D56"/>
<path d="M55.2032 110.035C55.158 109.932 55.113 109.829 55.0681 109.726C55.0854 109.727 55.1025 109.729 55.1199 109.73L55.2032 110.035Z" fill="#2F2E41"/>
<path d="M47.0456 89.276C47.5473 88.788 48.1995 88.4973 48.888 88.4548C49.5713 88.4775 50.2642 89.1137 50.1227 89.8032C51.3777 87.5123 53.3755 85.7502 55.7652 84.8265C58.1549 83.9027 60.7838 83.8761 63.1906 84.7515C64.8889 85.3692 66.5544 86.605 66.9445 88.4175C66.9825 88.8934 67.1201 89.3551 67.3479 89.7708C67.5454 89.993 67.8016 90.1509 68.0849 90.2249C68.3683 90.2989 68.6665 90.2858 68.9427 90.1873L68.9595 90.1822C69.0541 90.1489 69.1561 90.1457 69.2525 90.1728C69.3489 90.2 69.4352 90.2564 69.5002 90.3346C69.5651 90.4129 69.6058 90.5094 69.617 90.6118C69.6282 90.7142 69.6093 90.8176 69.5628 90.9088L69.0823 91.8327C69.688 91.9719 70.3174 91.9581 70.9169 91.7925C71.0164 91.7656 71.1217 91.7711 71.2181 91.8082C71.3145 91.8454 71.3974 91.9124 71.4555 92.0001C71.5135 92.0877 71.5438 92.1918 71.5422 92.2979C71.5406 92.404 71.5072 92.507 71.4466 92.5928C70.648 93.7191 69.6054 94.6378 68.4018 95.2756C67.1982 95.9134 65.8668 96.2528 64.5136 96.2667C62.5936 96.2546 60.6539 95.5724 58.7853 96.0276C58.0624 96.2037 57.387 96.5444 56.8085 97.0247C56.23 97.505 55.7632 98.1128 55.4422 98.8033C55.1213 99.4939 54.9544 100.25 54.9537 101.016C54.9531 101.781 55.1188 102.537 55.4387 103.229C54.8646 102.581 53.755 102.735 53.1678 103.369C52.8974 103.709 52.6975 104.102 52.5805 104.525C52.4636 104.948 52.432 105.39 52.4878 105.826C52.6444 107.161 53.0287 108.456 53.6229 109.652C51.3525 109.58 49.1582 108.792 47.3365 107.393C45.5147 105.994 44.1533 104.053 43.436 101.831C42.7188 99.6088 42.6804 97.2134 43.3259 94.9682C43.9714 92.723 45.2697 90.7361 47.0456 89.276Z" fill="#2F2E41"/>
<path d="M44.1383 197.898C43.128 197.146 42.4446 196.016 42.2353 194.75C42.0261 193.484 42.3077 192.184 43.0196 191.131C43.1776 190.898 43.3551 190.68 43.5503 190.48L36.4197 174.89L44.9358 176.155L50.4015 190.765C51.2147 191.747 51.6206 193.018 51.5315 194.306C51.4424 195.593 50.8655 196.792 49.9254 197.645C49.1318 198.357 48.1266 198.771 47.0749 198.817C46.0233 198.863 44.9877 198.538 44.1383 197.898Z" fill="#FFB6B6"/>
<path d="M41.9788 189.385L30.6322 163.095L30.5186 142.331L34.0952 131.115C34.5805 129.593 35.3567 128.187 36.378 126.98C37.3993 125.773 38.645 124.789 40.0414 124.087C41.4378 123.385 42.9566 122.978 44.508 122.891C46.0595 122.804 47.6121 123.039 49.0741 123.581L49.1528 123.61L49.1859 123.69C49.318 124.008 52.3179 131.658 43.4197 147.394L41.6289 158.162L47.9126 182.845L41.9788 189.385Z" fill="#3F3D56"/>
</g>
<defs>
<clipPath id="clip0_0_510">
<rect width="436" height="279" fill="white"/>
</clipPath>
</defs>
</svg>
